<svg width="500" height="500" viewBox="0 0 500 500" fill="none" xmlns="http://www.w3.org/2000/svg">
<path d="M230.738 163.793V244.652H234.693C247.291 244.652 256.422 240.697 262.086 232.787C267.75 224.877 271.363 213.207 272.926 197.777H278.492V301.781H272.926C271.754 290.453 269.264 281.176 265.455 273.949C261.744 266.723 257.398 261.889 252.418 259.447C247.438 256.908 240.211 255.639 230.738 255.639V311.596C230.738 322.533 231.178 329.223 232.057 331.664C233.033 334.105 234.791 336.107 237.33 337.67C239.869 339.232 243.971 340.014 249.635 340.014H261.5C280.055 340.014 294.898 335.717 306.031 327.123C317.262 318.529 325.318 305.443 330.201 287.865H335.621L326.686 351H155.006V345.58H161.598C167.359 345.58 171.998 344.555 175.514 342.504C178.053 341.137 180.006 338.793 181.373 335.473C182.447 333.129 182.984 326.977 182.984 317.016V186.352C182.984 177.367 182.74 171.85 182.252 169.799C181.275 166.381 179.469 163.744 176.832 161.889C173.121 159.154 168.043 157.787 161.598 157.787H155.006V152.367H321.266V211.107H315.699C312.867 196.752 308.863 186.449 303.688 180.199C298.609 173.949 291.383 169.359 282.008 166.43C276.539 164.672 266.285 163.793 251.246 163.793H230.738Z" fill="black"/>
</svg>
